<?xml version="1.0" encoding="UTF-8"?>
<svg xmlns="http://www.w3.org/2000/svg" xmlns:xlink="http://www.w3.org/1999/xlink" viewBox="0 0 366.06 378.72">
  <defs>
    <style>
      .cls-1, .cls-2, .cls-3 {
        fill: none;
      }

      .cls-4 {
        font-size: 16px;
        glyph-orientation-vertical: 0deg;
        text-orientation: upright;
        writing-mode: tb;
      }

      .cls-4, .cls-5, .cls-6, .cls-7 {
        fill: #fff;
      }

      .cls-4, .cls-6, .cls-8, .cls-7, .cls-9 {
        font-family: SpecialElite-Regular, 'Special Elite';
      }

      .cls-10 {
        clip-path: url(#clippath);
      }

      .cls-11 {
        letter-spacing: .66em;
      }

      .cls-12 {
        fill: #fdc911;
      }

      .cls-13 {
        fill: #8fe3cf;
      }

      .cls-14 {
        fill: #df542d;
      }

      .cls-15, .cls-8, .cls-9, .cls-16 {
        fill: #2b4865;
      }

      .cls-6, .cls-9 {
        font-size: 21.71px;
      }

      .cls-17 {
        fill: #d6d6d6;
        mix-blend-mode: multiply;
      }

      .cls-8 {
        font-size: 18.31px;
      }

      .cls-2 {
        stroke-linecap: round;
      }

      .cls-2, .cls-3 {
        stroke: #2b4865;
        stroke-miterlimit: 10;
        stroke-width: 2px;
      }

      .cls-7 {
        font-size: 25.49px;
      }

      .cls-9 {
        letter-spacing: .32em;
      }

      .cls-18 {
        letter-spacing: .64em;
      }

      .cls-19 {
        isolation: isolate;
      }

      .cls-16 {
        opacity: .6;
      }
    </style>
    <clipPath id="clippath">
      <rect class="cls-1" x="44.12" y="132.28" width="134.09" height="147.94" transform="translate(-62.63 49.12) rotate(-19.56)"/>
    </clipPath>
  </defs>
  <g class="cls-19">
    <g id="TEXT">
      <g>
        <path class="cls-17" d="m360.64,65.57c-3.89-.85-6.36-4.7-5.51-8.59s4.7-6.36,8.59-5.51c.26.06.52.13.77.21l1.56-7.14c-.26-.03-.52-.07-.79-.13-3.89-.85-6.36-4.7-5.51-8.59.04-.17.09-.34.14-.5l-7.1-1.55c-.02.17-.05.34-.09.51-.85,3.89-4.7,6.36-8.59,5.51s-6.36-4.7-5.51-8.59c.04-.17.09-.34.14-.5l-7.1-1.55c-.02.17-.05.34-.09.51-.85,3.89-4.7,6.36-8.59,5.51s-6.36-4.7-5.51-8.59c.04-.17.09-.34.14-.5l-7.1-1.55c-.02.17-.05.34-.09.51-.85,3.89-4.7,6.36-8.59,5.51s-6.36-4.7-5.51-8.59c.04-.17.09-.34.14-.5l-7.1-1.55c-.02.17-.05.34-.09.51-.85,3.89-4.7,6.36-8.59,5.51s-6.36-4.7-5.51-8.59c.04-.17.09-.34.14-.5l-7.1-1.55c-.02.17-.05.34-.09.51-.85,3.89-4.7,6.36-8.59,5.51s-6.36-4.7-5.51-8.59c.04-.17.09-.34.14-.5l-7.1-1.55c-.02.17-.05.34-.09.51-.85,3.89-4.7,6.36-8.59,5.51s-6.36-4.7-5.51-8.59c.04-.17.09-.34.14-.5l-7.1-1.55c-.02.17-.05.34-.09.51-.85,3.89-4.7,6.36-8.59,5.51s-6.36-4.7-5.51-8.59c.04-.17.09-.34.14-.5l-7.1-1.55c-.02.17-.05.34-.09.51-.81,3.72-4.37,6.13-8.08,5.59l-1.55,7.1c3.6,1.06,5.82,4.74,5.01,8.46-.81,3.72-4.37,6.13-8.08,5.59l-1.55,7.1c3.6,1.06,5.82,4.74,5.01,8.46-.81,3.72-4.37,6.13-8.08,5.59l-1.55,7.1c3.6,1.06,5.82,4.74,5.01,8.46-.81,3.72-4.37,6.13-8.08,5.59l-1.55,7.1c3.6,1.06,5.82,4.74,5.01,8.46s-4.37,6.13-8.08,5.59l-1.55,7.1c3.6,1.06,5.82,4.74,5.01,8.46-.81,3.72-4.37,6.13-8.08,5.59l-1.55,7.1c3.6,1.06,5.82,4.73,5.01,8.46s-4.37,6.13-8.08,5.59l-1.55,7.1c3.6,1.06,5.82,4.73,5.01,8.46s-4.37,6.13-8.08,5.59l-1.55,7.1c3.6,1.06,5.82,4.74,5.01,8.46s-4.37,6.13-8.08,5.59l-1.55,7.1c3.6,1.06,5.82,4.74,5.01,8.46s-4.37,6.13-8.08,5.59l-1.55,7.1c3.6,1.06,5.82,4.74,5.01,8.46l7.05,1.54c.85-3.89,4.7-6.36,8.59-5.51,3.89.85,6.36,4.7,5.51,8.59l7.05,1.54c.85-3.89,4.7-6.36,8.59-5.51,3.89.85,6.36,4.7,5.51,8.59l7.05,1.54c.85-3.89,4.7-6.36,8.59-5.51,3.89.85,6.36,4.7,5.51,8.59l7.05,1.54c.85-3.89,4.7-6.36,8.59-5.51s6.36,4.7,5.51,8.59l7.05,1.54c.85-3.89,4.7-6.36,8.59-5.51,3.89.85,6.36,4.7,5.51,8.59l7.05,1.54c.85-3.89,4.7-6.36,8.59-5.51,3.89.85,6.36,4.7,5.51,8.59l7.05,1.54c.85-3.89,4.7-6.36,8.59-5.51s6.36,4.7,5.51,8.59l7.05,1.54c.85-3.89,4.7-6.36,8.59-5.51.26.06.52.13.77.21l1.56-7.14c-.26-.03-.52-.07-.79-.12-3.89-.85-6.36-4.7-5.51-8.59.85-3.89,4.7-6.36,8.59-5.51.26.06.52.13.77.21l1.56-7.14c-.26-.03-.52-.07-.79-.13-3.89-.85-6.36-4.7-5.51-8.59.85-3.89,4.7-6.36,8.59-5.51.26.06.52.13.77.21l1.56-7.14c-.26-.03-.52-.07-.79-.13-3.89-.85-6.36-4.7-5.51-8.59s4.7-6.36,8.59-5.51c.26.06.52.13.77.21l1.56-7.14c-.26-.03-.52-.07-.79-.12-3.89-.85-6.36-4.7-5.51-8.59.85-3.89,4.7-6.36,8.59-5.51.26.06.52.13.77.21l1.56-7.14c-.26-.03-.52-.07-.79-.13-3.89-.85-6.36-4.7-5.51-8.59s4.7-6.36,8.59-5.51c.26.06.52.13.77.21l1.56-7.14c-.26-.03-.52-.07-.79-.12-3.89-.85-6.36-4.7-5.51-8.59s4.7-6.36,8.59-5.51c.26.06.52.13.77.21l1.56-7.14c-.26-.03-.52-.07-.79-.13-3.89-.85-6.36-4.7-5.51-8.59s4.7-6.36,8.59-5.51c.26.06.52.13.77.21l1.56-7.14c-.26-.03-.52-.07-.79-.12-3.89-.85-6.36-4.7-5.51-8.59.85-3.89,4.7-6.36,8.59-5.51.26.06.52.13.77.21l1.56-7.14c-.26-.03-.52-.07-.79-.12Z"/>
        <path class="cls-5" d="m359.78,64.22c-3.89-.85-6.36-4.7-5.51-8.59s4.7-6.36,8.59-5.51c.26.06.52.13.77.21l1.56-7.14c-.26-.03-.52-.07-.79-.13-3.89-.85-6.36-4.7-5.51-8.59.04-.17.09-.34.14-.5l-7.1-1.55c-.02.17-.05.34-.09.51-.85,3.89-4.7,6.36-8.59,5.51s-6.36-4.7-5.51-8.59c.04-.17.09-.34.14-.5l-7.1-1.55c-.02.17-.05.34-.09.51-.85,3.89-4.7,6.36-8.59,5.51s-6.36-4.7-5.51-8.59c.04-.17.09-.34.14-.5l-7.1-1.55c-.02.17-.05.34-.09.51-.85,3.89-4.7,6.36-8.59,5.51s-6.36-4.7-5.51-8.59c.04-.17.09-.34.14-.5l-7.1-1.55c-.02.17-.05.34-.09.51-.85,3.89-4.7,6.36-8.59,5.51s-6.36-4.7-5.51-8.59c.04-.17.09-.34.14-.5l-7.1-1.55c-.02.17-.05.34-.09.51-.85,3.89-4.7,6.36-8.59,5.51s-6.36-4.7-5.51-8.59c.04-.17.09-.34.14-.5l-7.1-1.55c-.02.17-.05.34-.09.51-.85,3.89-4.7,6.36-8.59,5.51s-6.36-4.7-5.51-8.59c.04-.17.09-.34.14-.5l-7.1-1.55c-.02.17-.05.34-.09.51-.85,3.89-4.7,6.36-8.59,5.51s-6.36-4.7-5.51-8.59c.04-.17.09-.34.14-.5l-7.1-1.55c-.02.17-.05.34-.09.51-.81,3.72-4.37,6.13-8.08,5.59l-1.55,7.1c3.6,1.06,5.82,4.74,5.01,8.46-.81,3.72-4.37,6.13-8.08,5.59l-1.55,7.1c3.6,1.06,5.82,4.74,5.01,8.46s-4.37,6.13-8.08,5.59l-1.55,7.1c3.6,1.06,5.82,4.74,5.01,8.46-.81,3.72-4.37,6.13-8.08,5.59l-1.55,7.1c3.6,1.06,5.82,4.74,5.01,8.46-.81,3.72-4.37,6.13-8.08,5.59l-1.55,7.1c3.6,1.06,5.82,4.74,5.01,8.46s-4.37,6.13-8.08,5.59l-1.55,7.1c3.6,1.06,5.82,4.73,5.01,8.46s-4.37,6.13-8.08,5.59l-1.55,7.1c3.6,1.06,5.82,4.73,5.01,8.46s-4.37,6.13-8.08,5.59l-1.55,7.1c3.6,1.06,5.82,4.74,5.01,8.46s-4.37,6.13-8.08,5.59l-1.55,7.1c3.6,1.06,5.82,4.74,5.01,8.46-.81,3.72-4.37,6.13-8.08,5.59l-1.55,7.1c3.6,1.06,5.82,4.74,5.01,8.46l7.05,1.54c.85-3.89,4.7-6.36,8.59-5.51,3.89.85,6.36,4.7,5.51,8.59l7.05,1.54c.85-3.89,4.7-6.36,8.59-5.51s6.36,4.7,5.51,8.59l7.05,1.54c.85-3.89,4.7-6.36,8.59-5.51,3.89.85,6.36,4.7,5.51,8.59l7.05,1.54c.85-3.89,4.7-6.36,8.59-5.51s6.36,4.7,5.51,8.59l7.05,1.54c.85-3.89,4.7-6.36,8.59-5.51s6.36,4.7,5.51,8.59l7.05,1.54c.85-3.89,4.7-6.36,8.59-5.51,3.89.85,6.36,4.7,5.51,8.59l7.05,1.54c.85-3.89,4.7-6.36,8.59-5.51,3.89.85,6.36,4.7,5.51,8.59l7.05,1.54c.85-3.89,4.7-6.36,8.59-5.51.26.06.52.13.77.21l1.56-7.14c-.26-.03-.52-.07-.79-.12-3.89-.85-6.36-4.7-5.51-8.59.85-3.89,4.7-6.36,8.59-5.51.26.06.52.13.77.21l1.56-7.14c-.26-.03-.52-.07-.79-.13-3.89-.85-6.36-4.7-5.51-8.59s4.7-6.36,8.59-5.51c.26.06.52.13.77.21l1.56-7.14c-.26-.03-.52-.07-.79-.13-3.89-.85-6.36-4.7-5.51-8.59s4.7-6.36,8.59-5.51c.26.06.52.13.77.21l1.56-7.14c-.26-.03-.52-.07-.79-.12-3.89-.85-6.36-4.7-5.51-8.59.85-3.89,4.7-6.36,8.59-5.51.26.06.52.13.77.21l1.56-7.14c-.26-.03-.52-.07-.79-.13-3.89-.85-6.36-4.7-5.51-8.59s4.7-6.36,8.59-5.51c.26.06.52.13.77.21l1.56-7.14c-.26-.03-.52-.07-.79-.12-3.89-.85-6.36-4.7-5.51-8.59s4.7-6.36,8.59-5.51c.26.06.52.13.77.21l1.56-7.14c-.26-.03-.52-.07-.79-.13-3.89-.85-6.36-4.7-5.51-8.59s4.7-6.36,8.59-5.51c.26.06.52.13.77.21l1.56-7.14c-.26-.03-.52-.07-.79-.12-3.89-.85-6.36-4.7-5.51-8.59s4.7-6.36,8.59-5.51c.26.06.52.13.77.21l1.56-7.14c-.26-.03-.52-.07-.79-.12Z"/>
        <rect class="cls-3" x="188.44" y="33.2" width="140.89" height="179.9" transform="translate(485.45 298.8) rotate(-167.65)"/>
        <rect class="cls-13" x="191.38" y="79.76" width="124.66" height="134.09" transform="translate(56.05 363.25) rotate(-77.65)"/>
        <rect class="cls-15" x="199.89" y="58.22" width="54.2" height="47.63" transform="translate(431.2 210.7) rotate(-167.65)"/>
        <g>
          <g>
            <path class="cls-14" d="m297.69,126.29c-.18,1.62-1.52,3-1.46,4.64.14,3.79,7.17,4.88,6.49,8.61-.59,3.25-6.61,3.4-6.66,6.7-.03,1.82,2,3.16,2.07,4.98.08,1.86-1.89,3.14-3.71,3.52s-3.8.28-5.4,1.22c-1.21.71-2.05,1.93-3.22,2.71-2.55,1.7-6.13.87-8.52-1.04-2.39-1.91-3.89-4.69-5.46-7.32-1.57-2.63-3.37-5.29-6.08-6.73-3.12-1.65-14.91-4.11-8.98-9.87,3.02-2.94,10.92-1.47,15.1-4.6,4.43-3.31,7.03-6.61,12.87-7.73,3.44-.66,13.62-1.09,12.97,4.92Z"/>
            <path class="cls-12" d="m277.47,152.97c-.66-.08-1.35-.33-1.93-.72-1.43-.95-2.57-2.54-3.78-4.23l-.43-.59c-1.69-2.34-3.64-4.67-6.45-5.84-.67-.28-1.51-.51-2.5-.77-1.09-.29-3.83-1.03-4.69-1.74.07-.12.18-.28.35-.5.51-.63,2.45-1.11,4-1.5,2.46-.62,5.25-1.31,7.28-3.23.81-.76,1.51-1.5,2.19-2.21,2.03-2.13,3.5-3.66,6.3-4.53,1.1-.34,3.57-.8,5.51-.58,1.72.2,1.71.68,1.71.88,0,.16-.15.59-.26.91-.29.84-.68,2-.5,3.36.38,2.79,2.64,4.13,4.29,5.1.38.23.96.56,1.3.83-.29.26-.77.59-1.09.82-1.38.96-3.68,2.57-3.43,5.53.13,1.58.97,2.66,1.59,3.44.09.12.22.28.31.41-.16.12-.4.27-.68.36-.37.12-.76.21-1.14.3-1.12.26-2.52.59-3.77,1.54-.74.55-1.27,1.21-1.71,1.74-.27.33-.52.63-.73.82-.55.46-1.34.45-1.76.4Z"/>
            <path class="cls-14" d="m279.08,171.74c-1.57.46-3.36-.24-4.84.45-3.44,1.59-1.73,8.49-5.43,9.31-3.23.71-5.69-4.78-8.75-3.55-1.69.68-2.14,3.06-3.79,3.84-1.68.79-3.63-.53-4.68-2.06-1.05-1.53-1.73-3.39-3.21-4.51-1.12-.85-2.57-1.15-3.75-1.93-2.55-1.7-3.17-5.32-2.33-8.26.84-2.94,2.82-5.4,4.64-7.87,1.82-2.46,3.58-5.16,3.86-8.21.32-3.52-1.97-15.34,5.63-12.1,3.88,1.65,5.57,9.5,10.08,12.15,4.77,2.81,8.81,3.93,12.11,8.88,1.94,2.92,6.27,12.15.47,13.86Z"/>
            <path class="cls-12" d="m253.72,170.88c-.15-.13-.33-.34-.48-.62-.19-.35-.34-.72-.5-1.09-.47-1.08-1.05-2.42-2.19-3.49-.67-.63-1.4-1.04-1.99-1.37-.36-.2-.7-.39-.92-.57-.88-.74-.9-2.51-.4-3.79.64-1.64,1.94-3.1,3.31-4.66l.49-.55c1.91-2.18,3.76-4.62,4.34-7.68.14-.73.19-1.63.26-2.67.07-1.16.26-4.07.76-5.08.16.06.34.14.54.25.7.39,1.53,2.24,2.19,3.73,1.06,2.36,2.25,5.03,4.48,6.68.88.66,1.72,1.21,2.52,1.75,2.42,1.62,4.16,2.78,5.53,5.43,1.13,2.2,2.03,5.86,1.45,7.11-.05.1-.07.16-.36.22-.15.03-.59-.03-.91-.07-.86-.12-2.04-.28-3.3.18-2.59.94-3.43,3.5-4.05,5.36-.14.43-.36,1.08-.54,1.48-.3-.24-.72-.65-.99-.93-.87-.87-1.85-1.86-3.22-2.31-.9-.29-1.81-.3-2.71-.03-1.48.45-2.35,1.52-2.98,2.3-.1.12-.22.27-.33.4Z"/>
            <path class="cls-14" d="m231.99,172.68c-1.03-1.27-1.08-3.19-2.28-4.29-2.79-2.56-8.5,1.68-10.68-1.41-1.9-2.7,2.21-7.09-.1-9.45-1.28-1.3-3.65-.79-5-2.02-1.38-1.25-.91-3.55.1-5.11,1.01-1.56,2.46-2.9,2.92-4.71.35-1.36.06-2.82.33-4.2.58-3.01,3.68-4.98,6.72-5.34,3.04-.36,6.07.52,9.05,1.24,2.97.73,6.14,1.31,9.06.38,3.37-1.07,13.38-7.75,13.34.52-.03,4.21-6.61,8.81-7.31,13.99-.75,5.48-.22,9.64-3.52,14.6-1.94,2.92-8.78,10.47-12.6,5.79Z"/>
            <path class="cls-12" d="m236.23,165.5c-.06-.02-.16-.14-.22-.24-.09-.13-.2-.57-.28-.89-.22-.86-.52-2.04-1.4-3.06-.6-.69-1.36-1.19-2.26-1.48-1.38-.45-2.81-.33-4.07-.23-.49.04-1.11.09-1.53.07.1-.38.32-.94.46-1.31.63-1.59,1.67-4.26-.13-6.55-.82-1.04-1.87-1.49-2.79-1.79,0,0-.83-.26-.87-.28.06-.19.18-.45.37-.7.24-.31.52-.61.79-.91.79-.87,1.78-1.95,2.31-3.46.31-.88.41-1.74.48-2.43.05-.42.09-.82.17-1.1.33-1.13,1.91-1.85,3.25-1.88,1.03-.03,2.14.18,3.72.69.57.19,1.14.39,1.7.59l.68.24c.34.12.68.24,1.02.35,2.03.66,4.72,1.34,7.51.71.71-.16,1.54-.46,2.5-.82,1.16-.42,3.74-1.37,4.85-1.29,0,.14,0,.34-.02.61-.09.82-1.44,2.34-2.52,3.56-1.72,1.94-3.67,4.13-4.32,6.89-.26,1.1-.45,2.11-.63,3.09-.54,2.93-.94,5.05-2.8,7.39-1.81,2.27-4.98,4.5-5.95,4.18Z"/>
            <path class="cls-14" d="m213.84,125.99c.77-1.44,2.52-2.22,3.08-3.76,1.28-3.57-4.84-7.19-2.83-10.4,1.76-2.8,7.4-.7,8.67-3.75.71-1.68-.68-3.67-.07-5.39.62-1.75,2.92-2.21,4.75-1.89s3.63,1.15,5.47.87c1.39-.21,2.62-1.03,4-1.32,3-.63,6.02,1.47,7.52,4.14,1.51,2.67,1.87,5.8,2.35,8.83.48,3.02,1.17,6.17,3.15,8.51,2.28,2.69,12.32,9.35,4.67,12.5-3.9,1.6-10.68-2.69-15.73-1.34-5.34,1.43-8.98,3.52-14.82,2.4-3.44-.66-13.05-4.05-10.21-9.39Z"/>
            <path class="cls-12" d="m227.89,130.4c-2.64-.86-5.38-2.68-5.76-3.82-.03-.09-.05-.16.11-.4.09-.13.44-.41.7-.62.69-.55,1.64-1.3,2.22-2.55,1.19-2.55.01-4.94-.84-6.68-.2-.4-.5-1.01-.64-1.42.38-.06.96-.07,1.35-.08,1.66-.04,4.45-.11,5.83-2.72.74-1.4.61-2.77.52-3.77-.01-.15-.03-.35-.04-.52.2-.02.47,0,.77.08.09.02.18.05.27.08.28.09.56.2.84.3.35.13.7.26,1.05.38.68.22,1.73.51,2.92.44.91-.05,1.71-.31,2.36-.51.4-.13.77-.24,1.05-.28.23-.03.47,0,.72.08.86.28,1.74,1.18,2.2,2.25.68,1.6.78,3.57.88,5.65l.04.74c.15,2.91.53,5.95,2.24,8.5.41.61.99,1.27,1.67,2.04.75.85,2.64,3.01,2.98,4.08-.12.06-.3.14-.56.22-.43.14-1.3-.01-2.59-.43-.51-.17-1.03-.35-1.55-.54-.59-.21-1.19-.43-1.79-.62-1.66-.54-3.84-1.11-6.02-.73-1.08.19-2.06.42-3.01.63-2.84.65-4.89,1.12-7.69.29l-.2-.06Z"/>
            <path class="cls-14" d="m252.81,93.72c1.56.48,2.66,2.06,4.28,2.31,3.74.58,6.15-6.11,9.68-4.74,3.08,1.2,2.09,7.13,5.32,7.81,1.79.37,3.48-1.36,5.28-1.09,1.84.28,2.73,2.45,2.75,4.31.03,1.86-.44,3.78.18,5.53.47,1.33,1.51,2.38,2.05,3.68,1.18,2.83-.31,6.19-2.64,8.17-2.33,1.98-5.34,2.93-8.22,3.98-2.88,1.04-5.84,2.31-7.76,4.7-2.21,2.75-6.86,13.86-11.39,6.95-2.31-3.52.62-11-1.66-15.7-2.41-4.98-5.16-8.15-5.16-14.1,0-3.5,1.51-13.58,7.29-11.8Z"/>
            <path class="cls-12" d="m255.2,129.98c-.08-.11-.19-.27-.31-.52-.37-.72-.05-2.75.2-4.38.4-2.58.85-5.5-.09-8.15-.37-1.05-.76-2-1.14-2.91-1.12-2.73-1.94-4.71-1.63-7.7.25-2.48,1.44-5.98,2.61-6.77.12-.08.15-.1.33-.04.04.01.07.03.11.04.14.06.47.36.72.58.59.54,1.4,1.27,2.54,1.64.1.03.19.06.29.09,2.65.68,4.72-.98,6.23-2.19.35-.28.88-.7,1.25-.93.12.37.24.96.32,1.35.33,1.66.89,4.44,3.6,5.32,1.51.48,2.8.07,3.74-.22.14-.04.33-.1.49-.15.05.2.09.48.06.79-.03.4-.1.8-.17,1.2-.2,1.17-.44,2.62-.08,4.17.21.91.6,1.67.91,2.28.19.37.37.73.45,1,.33,1.12-.61,2.62-1.71,3.41-1.41,1.01-3.28,1.5-5.25,2.03l-.7.18c-2.75.74-5.6,1.73-7.73,3.97-.51.53-1.04,1.26-1.66,2.09-.68.93-2.41,3.27-3.37,3.83Z"/>
          </g>
          <path class="cls-15" d="m267.95,132.36c-.21,1.89-.45,3.86-1.51,5.43-.55.82-1.32,1.52-1.58,2.47-.3,1.12.17,2.31-.04,3.45-.33,1.79-2.18,2.81-3.82,3.59-1.72.81-3.63,1.64-5.45,1.13-.93-.26-1.75-.85-2.7-.98-1.88-.26-4.07,1.27-5.54.06-1.58-1.3-.28-4.2-1.62-5.74-.89-1.02-2.66-1.07-3.29-2.27-.73-1.39.69-2.97.77-4.54.08-1.66-1.34-3.39-.54-4.85.95-1.72,3.86-.99,5.18-2.44.73-.8.82-2.38,1.84-2.9,1.08-.55,2.15.38,3.27.15,2.32-.47,3.54-2.84,6.28-2.45,2.73.39,2.97,2.51,4.54,4.22,2.16,2.34,4.68,1.5,4.21,5.67Z"/>
          <g>
            <path class="cls-15" d="m256.51,138.02c3.9-3.92,6.42-9.33,6.92-14.84.36-4.04-.36-8.21-2.01-11.94,1.21.38,2.64-.11,3.45-1.11.89-1.11,1.06-2.69.63-4.04-.43-1.35-1.4-2.49-2.54-3.34-1.22-.9-2.71-1.53-4.22-1.43-2.46.15-4.59,2.44-4.58,4.9.02,2.46,2.17,4.72,4.64,4.84l1.31.02c1.76,3.71,2.56,7.92,2.2,11.99-.47,5.25-2.87,10.4-6.59,14.14-.21.22-.22.58,0,.79.22.22.57.22.79,0Z"/>
            <path class="cls-15" d="m251.68,163.1c1.31.67,3.06.27,3.99-.86,1.32-1.62.62-4.13-1.03-4.99,1.73-6.27,1.53-12.97-.62-19.13-.1-.29-.42-.45-.71-.34-.1.04-.19.1-.25.18-.12.15-.16.35-.09.54,2.08,5.95,2.27,12.43.6,18.48-.24-.01-.48,0-.74.05-2.89.63-4.05,4.57-1.13,6.08Z"/>
            <path class="cls-15" d="m272.33,138.22c-4.01-1.51-8.51-1.74-12.63-.56-.12.03-.21.1-.28.19-.11.14-.16.32-.1.51.09.3.4.47.69.39,4.23-1.21,8.87-.85,12.89.93h0c-.15,1.03.36,2.1,1.2,2.71.84.61,1.96.77,2.97.52.68-.17,1.33-.52,1.76-1.07.51-.65.66-1.53.55-2.35-.22-1.61-1.54-3.03-3.14-3.31-1.56-.27-3.26.6-3.92,2.04Z"/>
            <path class="cls-15" d="m242.91,121.67l.67-.59c4.48,2.91,7.79,7.51,9.05,12.73.07.3.38.49.68.41.3-.07.49-.38.41-.68-1.3-5.4-4.68-10.16-9.27-13.24l.18-.16c.26-1.9.04-3.9-.85-5.6-.88-1.7-2.45-3.08-4.32-3.54-1.86-.46-3.99.1-5.25,1.54-.91,1.04-1.34,2.46-1.26,3.84.07,1.38.62,2.71,1.44,3.83.97,1.32,2.37,2.37,3.98,2.72,1.6.35,3.4-.08,4.54-1.27Z"/>
            <path class="cls-15" d="m239.2,144.06c1.32-.27,2.46-1.26,2.95-2.52,2.96.07,5.94-.83,8.36-2.55.25-.18.31-.53.13-.78-.18-.25-.53-.31-.78-.13-2.2,1.57-4.9,2.39-7.6,2.34l-.07-.87c-.18-1.49-1.31-2.83-2.75-3.25-1.71-.5-3.7.35-4.55,1.92-.72,1.33-.6,3.08.3,4.3.9,1.22,2.53,1.85,4.02,1.55Z"/>
          </g>
        </g>
        <g>
          <path class="cls-2" d="m224.93,150.59c-14.14-3.1-12.93-8.62-27.08-11.72"/>
          <path class="cls-2" d="m223.66,156.42c-14.14-3.1-12.93-8.62-27.08-11.72"/>
          <path class="cls-2" d="m222.38,162.25c-14.14-3.1-12.93-8.62-27.08-11.72"/>
          <path class="cls-2" d="m221.1,168.09c-14.14-3.1-12.93-8.62-27.08-11.72"/>
          <path class="cls-2" d="m219.83,173.92c-14.14-3.1-12.93-8.62-27.08-11.72"/>
        </g>
        <text class="cls-7" transform="translate(205.11 84.64) rotate(12.35)"><tspan x="0" y="0">13¢</tspan></text>
        <text class="cls-8" transform="translate(210.84 48.17) rotate(12.35)"><tspan class="cls-11" x="0" y="0">H</tspan><tspan class="cls-18" x="24.03" y="0">AW</tspan><tspan class="cls-11" x="69.13" y="0">AII</tspan></text>
        <text class="cls-6" transform="translate(178.88 189.09) rotate(12.35)"><tspan x="0" y="0">23/03/2023</tspan></text>
      </g>
      <g>
        <path class="cls-17" d="m171.46,115.8c-3.76,1.33-7.88-.63-9.22-4.39s.63-7.88,4.39-9.22c.25-.09.51-.16.76-.22l-2.45-6.89c-.24.11-.48.22-.73.31-3.76,1.33-7.88-.63-9.22-4.39-.06-.17-.1-.33-.15-.5l-6.85,2.43c.07.16.14.32.2.48,1.33,3.76-.63,7.88-4.39,9.22-3.76,1.33-7.88-.63-9.22-4.39-.06-.17-.1-.33-.15-.5l-6.85,2.43c.07.16.14.32.2.48,1.33,3.76-.63,7.88-4.39,9.22-3.76,1.33-7.88-.63-9.22-4.39-.06-.17-.1-.33-.15-.5l-6.85,2.43c.07.16.14.32.2.48,1.33,3.76-.63,7.88-4.39,9.22s-7.88-.63-9.22-4.39c-.06-.17-.1-.33-.15-.5l-6.85,2.43c.07.16.14.32.2.48,1.33,3.76-.63,7.88-4.39,9.22-3.76,1.33-7.88-.63-9.22-4.39-.06-.17-.1-.33-.15-.5l-6.85,2.43c.07.16.14.32.2.48,1.33,3.76-.63,7.88-4.39,9.22s-7.88-.63-9.22-4.39c-.06-.17-.1-.33-.15-.5l-6.85,2.43c.07.16.14.32.2.48,1.33,3.76-.63,7.88-4.39,9.22s-7.88-.63-9.22-4.39c-.06-.17-.1-.33-.15-.5l-6.85,2.43c.07.16.14.32.2.48,1.33,3.76-.63,7.88-4.39,9.22s-7.88-.63-9.22-4.39c-.06-.17-.1-.33-.15-.5l-6.85,2.43c.07.16.14.32.2.48,1.28,3.59-.47,7.51-3.9,9.02l2.43,6.85c3.62-1,7.44.94,8.72,4.53,1.28,3.59-.47,7.51-3.9,9.02l2.43,6.85c3.62-1,7.44.94,8.72,4.53s-.47,7.51-3.9,9.02l2.43,6.85c3.62-1,7.44.94,8.72,4.53s-.47,7.51-3.9,9.02l2.43,6.85c3.62-1,7.44.94,8.72,4.53,1.28,3.59-.47,7.51-3.9,9.02l2.43,6.85c3.62-1,7.44.94,8.72,4.53s-.47,7.51-3.9,9.02l2.43,6.85c3.62-1,7.44.94,8.72,4.53s-.47,7.51-3.9,9.02l2.43,6.85c3.62-1,7.44.94,8.72,4.53s-.47,7.51-3.9,9.02l2.43,6.85c3.62-1,7.44.94,8.72,4.53s-.47,7.51-3.9,9.02l2.43,6.85c3.62-1,7.44.94,8.72,4.53,1.28,3.59-.47,7.51-3.9,9.02l2.43,6.85c3.62-1,7.44.94,8.72,4.53l6.8-2.42c-1.33-3.76.63-7.88,4.39-9.22s7.88.63,9.22,4.39l6.8-2.42c-1.33-3.76.63-7.88,4.39-9.22,3.76-1.33,7.88.63,9.22,4.39l6.8-2.42c-1.33-3.76.63-7.88,4.39-9.22,3.76-1.33,7.88.63,9.22,4.39l6.8-2.42c-1.33-3.76.63-7.88,4.39-9.22s7.88.63,9.22,4.39l6.8-2.42c-1.33-3.76.63-7.88,4.39-9.22,3.76-1.33,7.88.63,9.22,4.39l6.8-2.42c-1.33-3.76.63-7.88,4.39-9.22s7.88.63,9.22,4.39l6.8-2.42c-1.33-3.76.63-7.88,4.39-9.22,3.76-1.33,7.88.63,9.22,4.39l6.8-2.42c-1.33-3.76.63-7.88,4.39-9.22.25-.09.51-.16.76-.22l-2.45-6.89c-.24.11-.48.22-.73.31-3.76,1.33-7.88-.63-9.22-4.39-1.33-3.76.63-7.88,4.39-9.22.25-.09.51-.16.76-.22l-2.45-6.89c-.24.11-.48.22-.73.31-3.76,1.33-7.88-.63-9.22-4.39s.63-7.88,4.39-9.22c.25-.09.51-.16.76-.22l-2.45-6.89c-.24.11-.48.22-.73.31-3.76,1.33-7.88-.63-9.22-4.39-1.33-3.76.63-7.88,4.39-9.22.25-.09.51-.16.76-.22l-2.45-6.89c-.24.11-.48.22-.73.31-3.76,1.33-7.88-.63-9.22-4.39s.63-7.88,4.39-9.22c.25-.09.51-.16.76-.22l-2.45-6.89c-.24.11-.48.22-.73.31-3.76,1.33-7.88-.63-9.22-4.39s.63-7.88,4.39-9.22c.25-.09.51-.16.76-.22l-2.45-6.89c-.24.11-.48.22-.73.31-3.76,1.33-7.88-.63-9.22-4.39s.63-7.88,4.39-9.22c.25-.09.51-.16.76-.22l-2.45-6.89c-.24.11-.48.22-.73.31-3.76,1.33-7.88-.63-9.22-4.39-1.33-3.76.63-7.88,4.39-9.22.25-.09.51-.16.76-.22l-2.45-6.89c-.24.11-.48.22-.73.31-3.76,1.33-7.88-.63-9.22-4.39-1.33-3.76.63-7.88,4.39-9.22.25-.09.51-.16.76-.22l-2.45-6.89c-.24.11-.48.22-.73.31Z"/>
        <path class="cls-5" d="m170.01,115.11c-3.76,1.33-7.88-.63-9.22-4.39s.63-7.88,4.39-9.22c.25-.09.51-.16.76-.22l-2.45-6.89c-.24.11-.48.22-.73.31-3.76,1.33-7.88-.63-9.22-4.39-.06-.17-.1-.33-.15-.5l-6.85,2.43c.07.16.14.32.2.48,1.33,3.76-.63,7.88-4.39,9.22s-7.88-.63-9.22-4.39c-.06-.17-.1-.33-.15-.5l-6.85,2.43c.07.16.14.32.2.48,1.33,3.76-.63,7.88-4.39,9.22-3.76,1.33-7.88-.63-9.22-4.39-.06-.17-.1-.33-.15-.5l-6.85,2.43c.07.16.14.32.2.48,1.33,3.76-.63,7.88-4.39,9.22-3.76,1.33-7.88-.63-9.22-4.39-.06-.17-.1-.33-.15-.5l-6.85,2.43c.07.16.14.32.2.48,1.33,3.76-.63,7.88-4.39,9.22-3.76,1.33-7.88-.63-9.22-4.39-.06-.17-.1-.33-.15-.5l-6.85,2.43c.07.16.14.32.2.48,1.33,3.76-.63,7.88-4.39,9.22s-7.88-.63-9.22-4.39c-.06-.17-.1-.33-.15-.5l-6.85,2.43c.07.16.14.32.2.48,1.33,3.76-.63,7.88-4.39,9.22-3.76,1.33-7.88-.63-9.22-4.39-.06-.17-.1-.33-.15-.5l-6.85,2.43c.07.16.14.32.2.48,1.33,3.76-.63,7.88-4.39,9.22s-7.88-.63-9.22-4.39c-.06-.17-.1-.33-.15-.5l-6.85,2.43c.07.16.14.32.2.48,1.28,3.59-.47,7.51-3.9,9.02l2.43,6.85c3.62-1,7.44.94,8.72,4.53s-.47,7.51-3.9,9.02l2.43,6.85c3.62-1,7.44.94,8.72,4.53s-.47,7.51-3.9,9.02l2.43,6.85c3.62-1,7.44.94,8.72,4.53s-.47,7.51-3.9,9.02l2.43,6.85c3.62-1,7.44.94,8.72,4.53s-.47,7.51-3.9,9.02l2.43,6.85c3.62-1,7.44.94,8.72,4.53,1.28,3.59-.47,7.51-3.9,9.02l2.43,6.85c3.62-1,7.44.94,8.72,4.53s-.47,7.51-3.9,9.02l2.43,6.85c3.62-1,7.44.94,8.72,4.53s-.47,7.51-3.9,9.02l2.43,6.85c3.62-1,7.44.94,8.72,4.53,1.28,3.59-.47,7.51-3.9,9.02l2.43,6.85c3.62-1,7.44.94,8.72,4.53,1.28,3.59-.47,7.51-3.9,9.02l2.43,6.85c3.62-1,7.44.94,8.72,4.53l6.8-2.42c-1.33-3.76.63-7.88,4.39-9.22,3.76-1.33,7.88.63,9.22,4.39l6.8-2.42c-1.33-3.76.63-7.88,4.39-9.22s7.88.63,9.22,4.39l6.8-2.42c-1.33-3.76.63-7.88,4.39-9.22,3.76-1.33,7.88.63,9.22,4.39l6.8-2.42c-1.33-3.76.63-7.88,4.39-9.22s7.88.63,9.22,4.39l6.8-2.42c-1.33-3.76.63-7.88,4.39-9.22,3.76-1.33,7.88.63,9.22,4.39l6.8-2.42c-1.33-3.76.63-7.88,4.39-9.22s7.88.63,9.22,4.39l6.8-2.42c-1.33-3.76.63-7.88,4.39-9.22,3.76-1.33,7.88.63,9.22,4.39l6.8-2.42c-1.33-3.76.63-7.88,4.39-9.22.25-.09.51-.16.76-.22l-2.45-6.89c-.24.11-.48.22-.73.31-3.76,1.33-7.88-.63-9.22-4.39s.63-7.88,4.39-9.22c.25-.09.51-.16.76-.22l-2.45-6.89c-.24.11-.48.22-.73.31-3.76,1.33-7.88-.63-9.22-4.39-1.33-3.76.63-7.88,4.39-9.22.25-.09.51-.16.76-.22l-2.45-6.89c-.24.11-.48.22-.73.31-3.76,1.33-7.88-.63-9.22-4.39-1.33-3.76.63-7.88,4.39-9.22.25-.09.51-.16.76-.22l-2.45-6.89c-.24.11-.48.22-.73.31-3.76,1.33-7.88-.63-9.22-4.39-1.33-3.76.63-7.88,4.39-9.22.25-.09.51-.16.76-.22l-2.45-6.89c-.24.11-.48.22-.73.31-3.76,1.33-7.88-.63-9.22-4.39s.63-7.88,4.39-9.22c.25-.09.51-.16.76-.22l-2.45-6.89c-.24.11-.48.22-.73.31-3.76,1.33-7.88-.63-9.22-4.39-1.33-3.76.63-7.88,4.39-9.22.25-.09.51-.16.76-.22l-2.45-6.89c-.24.11-.48.22-.73.31-3.76,1.33-7.88-.63-9.22-4.39s.63-7.88,4.39-9.22c.25-.09.51-.16.76-.22l-2.45-6.89c-.24.11-.48.22-.73.31-3.76,1.33-7.88-.63-9.22-4.39s.63-7.88,4.39-9.22c.25-.09.51-.16.76-.22l-2.45-6.89c-.24.11-.48.22-.73.31Z"/>
        <rect class="cls-3" x="45.06" y="128.52" width="140.89" height="179.9" transform="translate(297.48 385.66) rotate(160.44)"/>
        <rect class="cls-13" x="42.33" y="132.59" width="134.09" height="137.23" transform="translate(-61.05 48.23) rotate(-19.56)"/>
        <rect class="cls-15" x="107.11" y="117.82" width="54.2" height="47.63" transform="translate(308.09 230.17) rotate(160.44)"/>
        <g class="cls-10">
          <g>
            <g>
              <path class="cls-15" d="m106.51,212.35c2.72-5.84,11.55-11.55,11.55-11.55l.44-2.2c-10.47,5.24-13.34,13-13.34,13"/>
              <g>
                <path class="cls-14" d="m135.8,189.44c-16.44-1.47-19.46,7.14-18.94,12.97.46,1.69,1.19,2.89,1.85,3.72,4.87,6.12,15.32,3.82,15.78,3.71,8.37-.65,14.01-5.9,14.02-10.53.01-4.63-4.47-9.14-12.72-9.88Z"/>
                <path class="cls-14" d="m141.83,194.73c-7.24-3.29-19.91-3.73-21.59,4.71-.85,4.08,2.46,7.54,6.67,9.18,1.96.13,3.96-.07,5.75-.48,7.24-.56,12.21-4.94,12.62-8.98-.43-2.03-1.45-3.8-3.44-4.42Z"/>
                <path class="cls-12" d="m119.59,193.08c-4.22,4.14-3.63,11.18,1.65,14.04,1.68.91,3.65,1.38,5.66,1.51-4.21-1.64-7.52-5.1-6.67-9.18,1.68-8.44,14.35-8,21.59-4.71,1.99.62,3.01,2.39,3.44,4.42.02-.17.03-.34.03-.51.01-4.17-4.03-8.24-11.47-8.91-4.75-.42-10.6-.22-14.24,3.35Z"/>
                <path class="cls-12" d="m129.69,191.56c-3.14-.28-7.01-.15-9.42,2.21-2.79,2.74-2.4,7.39,1.09,9.28,1.25.67,2.74.97,4.23,1.01,2.52-3.84,6.83-6.59,11.66-6.28.01-.11.03-.22.03-.33,0-2.76-2.66-5.45-7.59-5.89Z"/>
                <path class="cls-5" d="m123.77,193.57c-.69-.06-1.53-.03-2.06.48-.61.6-.53,1.61.24,2.03.48.26,1.12.27,1.65.15,1.09-.08,1.82-.77,1.83-1.37,0-.6-.58-1.19-1.66-1.29Z"/>
              </g>
            </g>
            <path class="cls-15" d="m106.51,212.35s5.49-45.08-18.6-67.4c0,0-7.23,18.95,16.97,67.99l1.63-.59Z"/>
            <path class="cls-15" d="m106.17,210.09s-42.06-36.63-92.84-15.02c0,0,.78,21.33,92.63,17.92l.21-2.9Z"/>
            <path class="cls-15" d="m104.46,212.42c-3.26,8.57-4.09,19.4-4.09,19.4l1.43,1.79c1.1-16.34,4.51-20.29,4.51-20.29,8.8-5.86,20.76-2.29,20.76-2.29l2.49-2.71c-19.14-1.58-25.11,4.1-25.11,4.1Z"/>
            <g>
              <path class="cls-14" d="m129.63,253.99c-6.22-26.35-21.19-26.59-30-22.76-2.39,1.59-3.88,3.34-4.84,4.81-7,10.74,1.99,25.82,2.4,26.49,5.34,12.69,16.43,18.75,23.64,16.38,7.21-2.37,11.92-11.68,8.79-24.91Z"/>
              <path class="cls-14" d="m122.8,263.95c1.3-12.23-4.24-31.02-17.44-29.38-6.4.74-9.86,7.29-10.21,14.26.77,2.94,2.03,5.78,3.52,8.2,4.36,10.35,13.21,15.5,19.33,14.12,2.77-1.62,4.87-3.99,4.81-7.21Z"/>
              <path class="cls-12" d="m114.38,230.52c-8.13-4.17-18.16.12-19.78,9.27-.51,2.91-.24,6.03.55,9.03.35-6.97,3.81-13.52,10.21-14.26,13.2-1.64,18.74,17.15,17.44,29.38.07,3.22-2.03,5.59-4.81,7.21.26-.06.51-.12.76-.21,6.13-2.02,10.13-9.93,7.47-21.17-1.7-7.18-4.84-15.66-11.85-19.25Z"/>
              <path class="cls-12" d="m121.53,244.59c-1.12-4.75-3.2-10.36-7.84-12.74-5.38-2.76-12.02.08-13.08,6.13-.67,3.8.7,8.16,2.69,11.4,3,7.13,9.24,10.54,13.29,9.21,4.05-1.33,6.7-6.57,4.94-14Z"/>
              <path class="cls-5" d="m115.69,236.89c-.24-1.04-.7-2.26-1.71-2.78-1.17-.6-2.62.02-2.86,1.34-.15.83.15,1.78.59,2.49.66,1.56,2.02,2.3,2.9,2.01.88-.29,1.46-1.43,1.08-3.06Z"/>
            </g>
            <g>
              <path class="cls-14" d="m161.61,210.24c-21.78-16.08-33.36-6.58-37.6,2.03-.8,2.76-.8,5.06-.58,6.79,1.6,12.72,18.21,18.41,18.96,18.66,12.28,6.22,24.66,3.68,28.62-2.79,3.96-6.47,1.54-16.62-9.4-24.69Z"/>
              <path class="cls-14" d="m165.55,222.79c-7.34-10.79-24.72-22.2-34.28-11.81-4.67,4.99-2.98,12.67,1.52,18.55,2.64,1.85,5.6,3.29,8.47,4.23,10.63,5.39,21.33,3.49,25.34-1.83,1.13-3.21,1.21-6.57-1.05-9.13Z"/>
              <path class="cls-12" d="m135.8,201.52c-9.45,2.2-14.62,12.56-9.65,21.08,1.58,2.71,3.94,5.04,6.64,6.94-4.5-5.88-6.19-13.56-1.52-18.55,9.56-10.39,26.94,1.02,34.28,11.81,2.26,2.56,2.19,5.92,1.05,9.13.17-.22.33-.45.48-.69,3.58-5.84,1.39-14.99-8.47-22.26-6.3-4.65-14.66-9.35-22.81-7.45Z"/>
              <path class="cls-12" d="m151.24,208c-4.17-3.08-9.7-6.19-15.09-4.93-6.25,1.46-9.67,8.31-6.39,13.94,2.07,3.54,6.16,6.12,10,7.38,7.33,3.71,14.71,2.19,17.08-1.67,2.37-3.86.92-9.91-5.61-14.73Z"/>
              <path class="cls-5" d="m141.23,205.77c-.91-.67-2.12-1.35-3.29-1.08-1.36.32-2.11,1.81-1.39,3.04.45.77,1.34,1.34,2.18,1.61,1.6.81,3.21.48,3.73-.36.52-.84.2-2.16-1.22-3.22Z"/>
            </g>
          </g>
        </g>
        <path class="cls-2" d="m75.87,238.51c13.64-4.85,15.47.3,29.11-4.55"/>
        <path class="cls-2" d="m77.87,244.14c13.64-4.85,15.47.3,29.11-4.55"/>
        <path class="cls-2" d="m79.87,249.76c13.64-4.85,15.47.3,29.11-4.55"/>
        <path class="cls-2" d="m81.86,255.39c13.64-4.85,15.47.3,29.11-4.55"/>
        <path class="cls-2" d="m83.86,261.02c13.64-4.85,15.47.3,29.11-4.55"/>
        <text class="cls-9" transform="translate(87.28 314.95) rotate(-19.56)"><tspan x="0" y="0">GREECE</tspan></text>
        <text class="cls-7" transform="translate(117 155.36) rotate(-19.56)"><tspan x="0" y="0">20¢</tspan></text>
        <text class="cls-4" transform="translate(32.38 162.34) rotate(-19.56)"><tspan x="0" y="0">22/12/23</tspan></text>
      </g>
      <ellipse class="cls-16" cx="212.56" cy="370.26" rx="114.37" ry="8.46"/>
    </g>
  </g>
</svg>