<?xml version="1.0" encoding="UTF-8"?>
<svg id="Calque_1" data-name="Calque 1" xmlns="http://www.w3.org/2000/svg" xmlns:xlink="http://www.w3.org/1999/xlink" viewBox="0 0 212 53">
  <defs>
    <style>
      .cls-1 {
        fill: none;
      }

      .cls-2 {
        clip-path: url(#clippath);
      }

      .cls-3 {
        fill: #2b4865;
      }
    </style>
    <clipPath id="clippath">
      <rect class="cls-1" width="212" height="53"/>
    </clipPath>
  </defs>
  <g class="cls-2">
    <g>
      <path class="cls-3" d="m10.24.14C11.24.04,11.86-.02,12.08,0c.24.02.43.11.58.26.19.15.56.23,1.11.23.5,0,1.12.13,1.86.4.43.15,1.35.47,2.78.98l1.68.57.24-.98c.12-.61.24-.98.38-1.12.14-.13.42-.2.84-.2.7,0,1.13.28,1.3.83.17.55.26,2.07.26,4.55s-.15,3.86-.46,4.35c-.39.57-.95.74-1.68.52-.31-.12-.51-.33-.58-.66-.08-.32-.14-1.04-.17-2.15,0-.84-.02-1.33-.05-1.49-.04-.15-.15-.23-.34-.23-.27,0-.56-.3-.87-.91-.24-.54-.57-.92-1.01-1.17-.44-.25-1.39-.58-2.81-1-2.08-.69-3.94-.78-5.56-.29-.92.27-1.58.58-1.94.95-.37.37-.62.97-.78,1.81-.24,1.23-.41,2.1-.53,2.63-.12.5-.13.98-.03,1.43.1.46.38,1.26.84,2.41.24.61.45,1.04.67,1.29.21.25.62.62,1.25,1.12.85.69,2.01,1.33,3.48,1.95,3.05,1.3,5.41,2.58,7.07,3.84.82.65,1.33,1.09,1.57,1.32.24.23.34.42.34.57,0,.23.12.38.34.46.46.15,1.05.96,1.77,2.41.72,1.45,1.15,2.71,1.3,3.78.12.69.12,1.57,0,2.63-.12,1.06-.27,1.74-.46,2-.12.15-.41.69-.87,1.6-.46.96-1.16,1.83-2.08,2.63-2.86,2.56-6.53,3.84-11.01,3.84-3.02,0-5.41-.63-7.19-1.89l-.53-.34.12.46c.24.88,0,1.38-.7,1.49-.62.12-1.04.03-1.28-.26-.24-.29-.41-.97-.53-2.03-.08-.64-.17-1.03-.29-1.15C0,37.36,0,37.24.12,37.09c.15-.19.19-1.49.12-3.92-.08-2.42-.02-3.73.17-3.92.39-.38.86-.39,1.42-.03.56.37.84.87.84,1.52,0,.69.27,1.77.82,3.27.31.81.89,1.58,1.74,2.34.5.49.91.85,1.25,1.06.33.21.82.41,1.48.6.7.27,1.27.42,1.71.46.44.04,1.38.05,2.81.05h3.02l1.62-1.26c1.08-.81,1.81-1.38,2.2-1.72.27-.27.43-.49.49-.69.05-.19.09-.71.09-1.55,0-1.11-.12-1.83-.34-2.17-.27-.38-.63-1.01-1.1-1.89-.46-.96-.92-1.58-1.4-1.89-.43-.27-1.16-.98-2.2-2.12-1.04-1.11-1.73-1.66-2.06-1.66s-1-.38-2-1.15c-1.01-.72-1.72-1.2-2.15-1.43-1.01-.49-2.16-1.31-3.45-2.43-1.3-1.13-2.23-2.11-2.81-2.95-.43-.65-.69-1.6-.78-2.86-.1-1.26,0-2.48.26-3.67.19-.81.53-1.72.99-2.75.46-1.11.77-1.87.92-2.29.08-.27.16-.45.26-.55.1-.1.26-.16.49-.2.27-.07.43-.14.49-.2.05-.05.06-.2.03-.43-.04-.23,0-.4.09-.52.1-.12.34-.29.72-.52.5-.3.89-.57,1.16-.81.58-.54,1.06-.71,1.45-.52.19.12.32.14.38.09.06-.05.53-.14,1.42-.26h-.04Z"/>
      <path class="cls-3" d="m36.2,6.5c.15-.27.34-.4.58-.4.27.04.56.18.87.43.31.25.48.51.53.77.12.34.21.55.29.63.12.08.17,1.33.17,3.78v3.67h3.07c2.05,0,3.12.1,3.22.29.1.19.03.37-.2.52-.31.23-2.03.38-5.16.46l-1.11.05v2.69c-.04,1.6-.02,4.41.05,8.42.07,4.01.15,6.2.24,6.58.12,1.07.25,1.75.41,2.06s.46.57.92.81l.92.52.53-.4c.27-.19.63-.55,1.11-1.09.46-.54.79-.98.99-1.32.15-.27.39-.3.7-.12.34.19.58.38.7.57.12.23,0,.61-.32,1.15-.33.54-.72.96-1.19,1.26-.54.46-1.04.89-1.5,1.32-.89.88-1.84,1.32-2.84,1.32-.51,0-1.05-.11-1.65-.31-.6-.21-1.03-.43-1.3-.66-.27-.23-.46-.34-.58-.34s-.33-.16-.63-.48c-.31-.32-.53-.6-.63-.83-.34-.72-.48-1.92-.41-3.61.12-2.78.05-4.98-.17-6.58-.12-.96-.15-2.67-.12-5.15.04-2.48.14-3.95.29-4.41.12-.42.12-.76,0-1.03-.08-.23-.2-.36-.38-.4-.17-.04-.72-.04-1.65,0-.89.04-1.43.04-1.62,0-.19-.04-.3-.14-.32-.31-.02-.17.11-.34.38-.52.27-.17.7-.35,1.28-.55.31-.12.88-.64,1.71-1.57.83-.93,1.42-1.69,1.77-2.26.34-.64.53-1.2.53-1.66s.1-.74.29-.86c.12-.07.12-.29,0-.63-.24-.61-.14-1.2.29-1.77h-.03Z"/>
      <path class="cls-3" d="m63.22,14.46c0-.27.72-.21,2.15.17,1.66.46,2.78,1.07,3.36,1.83.24.34.46.65.7.91.19.19.46.63.82,1.32.27.54.41,1.08.41,1.63s-.1,1.83-.29,3.81c-.12.72-.1,1.3.05,1.72.15.38.24,2.25.24,5.61.04,2.52.1,4.13.17,4.84.07.71.27,1.14.58,1.29.12.08.5-.17,1.16-.74.66-.57.99-.96.99-1.15,0-.23.31-.15.92.23.12.08.21.15.29.23.19.15.3.28.32.38.02.1-.03.26-.14.48-.19.3-.53.67-.99,1.09-.51.38-.72.61-.63.69.07.15-.03.34-.32.57-.29.23-.62.4-1.01.52-.27.08-.45.15-.55.23-.1.08-.13.17-.09.29.04.23-.09.41-.38.55-.29.13-.72.2-1.3.2-.51,0-1.14-.17-1.91-.52-.77-.34-1.3-.69-1.59-1.03-.29-.34-.4-.84-.32-1.49l.12-.98-.41.29c-1.31.91-2.34,1.53-3.07,1.83-.62.23-1.2.47-1.74.74-.54.27-.99.4-1.33.4-.31,0-.49.12-.55.34-.05.23-.29.34-.7.34s-.86-.12-1.36-.34c-.43-.19-.77-.3-1.04-.34-.5,0-1.33-.54-2.49-1.6-1.39-1.3-2.16-2.78-2.32-4.46-.08-.49-.1-.85-.05-1.06.04-.21.17-.48.41-.83,1.01-1.53,3.32-3.32,6.96-5.39,3.29-1.83,5.76-2.81,7.42-2.92.07-.04.1-.86.05-2.46v-2.46l-1.21-1.15c-1.39-1.23-2.9-1.83-4.52-1.83-.54,0-.9.03-1.07.09-.17.05-.38.2-.61.43-.39.38-.72.95-.99,1.69-.27.74-.37,1.32-.29,1.74.07.57.05.99-.09,1.26-.14.27-.52.54-1.13.81-.73.3-1.27.45-1.59.43-.33-.02-.71-.26-1.13-.72-.46-.54-.7-.99-.7-1.38,0-1.11.54-2.19,1.62-3.27.73-.76,1.3-1.26,1.68-1.49.39-.23,1.12-.52,2.2-.86.82-.27,1.4-.42,1.77-.46.36-.04.96-.04,1.77,0,1.2.08,1.79.05,1.79-.05v-.04Zm2.84,13c-.08-1.3-.14-1.97-.17-2-.08-.07-1.39.47-3.94,1.66-1.82.88-2.88,1.38-3.19,1.49-.46.15-.81.39-1.01.72-.21.32-.38.87-.49,1.63-.39,1.91-.37,3.52.05,4.81.15.5.3.82.43.98.14.15.43.37.9.63.77.42,1.54.57,2.29.46s1.78-.55,3.1-1.32c.85-.54,1.34-.91,1.48-1.15.14-.23.18-.82.15-1.77-.04-.27.04-1.05.24-2.34.19-1.26.25-2.52.17-3.78h0Z"/>
      <path class="cls-3" d="m88.26,13.72c.31-.07.5-.12.58-.12s.14.1.17.29c.07.19.21.4.41.63.19.23.24.94.12,2.12,0,.3,0,.59-.03.86-.02.27,0,.47.03.63v.29c.07,0,.63-.36,1.68-1.09,1.2-.76,2.05-1.26,2.55-1.49.62-.34.94-.57.99-.69.04-.12.79-.27,2.26-.46l2.2-.29,1.28.63c.85.38,1.6.91,2.27,1.6.58.69,1,1.26,1.28,1.72l.41.57.46-.4c1.55-1.41,3-2.48,4.35-3.2l1.68-.91h2.44c1.12,0,1.87.02,2.23.05s.8.17,1.3.4c1.04.42,1.79,1.11,2.26,2.06.46.96.85,2.63,1.16,5.04.43,3.05.56,6.24.41,9.56-.12,1.75-.09,2.68.09,2.77.17.1.28.6.32,1.52.04.96.12,1.53.24,1.72.12.27.12.47,0,.63-.19.23-.23.45-.09.66.14.21.33.31.61.31.34,0,.53.07.53.2s.14.2.43.2.51.05.67.17c.12.12.18.29.2.52.02.23-.03.36-.14.4-.12,0-1.64.03-4.58.09-2.93.05-4.64.06-5.1.03-1.35,0-2.07-.21-2.15-.63-.08-.38.44-.57,1.57-.57.7,0,1.12-.04,1.28-.12s.24-.26.24-.55.15-.6.46-.95l.46-.46-.12-2.17c-.08-1.64-.14-4.62-.17-8.93l-.05-6.75-.53-.52c-.54-.57-1.03-.96-1.48-1.15s-1.07-.29-1.88-.29c-.97,0-1.7.12-2.2.34-.43.27-.72.4-.87.4s-.66.37-1.5,1.09c-.73.69-1.3,1.18-1.68,1.49-.19.19-.3.34-.32.46-.02.12,0,.42.09.91.15.72.19,1.18.12,1.38-.04.19-.1,1.87-.17,5.04-.04,2.9-.12,4.87-.24,5.9-.27,1.64-.24,2.52.12,2.63.12.08.17.17.17.29,0,.34.33.76.99,1.26.66.49,1.31.86,1.97,1.09.43.12.43.38,0,.81-.24.23-.7.29-1.39.17-.66-.08-1.88-.13-3.65-.17-4.14-.04-6.55-.12-7.25-.23-.27-.07-.41-.23-.41-.46,0-.34.53-.52,1.57-.52.34,0,.61-.04.78-.14.17-.1.42-.31.72-.66.77-.84,1.21-1.38,1.3-1.6.1-.23.14-.82.14-1.77.04-1.22.07-1.97.12-2.24.12-.96.17-2.27.17-3.95s-.05-3.07-.17-4.18c-.19-1.6-.29-2.75-.29-3.44,0-.65-.12-1.11-.34-1.38-.27-.38-.56-.82-.87-1.32-.31-.61-.53-.98-.63-1.09-.08-.07-.66-.15-1.74-.23-.77,0-1.3.03-1.57.09-.27.05-.77.26-1.5.6-.97.46-1.77.98-2.41,1.57-.63.59-1,.9-1.07.95-.15.08-.32,1.28-.49,3.61-.17,2.33-.26,4.7-.26,7.1v4.87l.46,1.03c.34.72.58,1.09.7,1.09.07,0,.12.05.12.17,0,.38.44.65,1.33.81.34.04.58.1.7.17.12.08.19.21.24.4.12.46-.05.72-.53.81-.51.07-2.15.1-4.93.05-2.9-.08-4.63-.14-5.19-.2s-.9-.22-1.01-.48c-.34-.69-.1-1.03.75-1.03.66,0,1.15-.18,1.48-.55.33-.36.61-1.02.84-1.98.43-2.21.46-4.41.12-6.58-.08-.69-.1-1.77-.05-3.27.04-1.49.14-2.56.29-3.2.12-.57.14-1.37.05-2.38-.08-1.01-.21-1.69-.41-2.03-.15-.27-.44-.58-.87-.95-.43-.36-.7-.5-.82-.43-.12.08-.52.16-1.19.26-.68.1-1.03.04-1.07-.14-.08-.15-.03-.31.14-.48.17-.17.43-.28.78-.31.46-.12,1.78-.69,3.94-1.72,2.2-1.06,3.42-1.62,3.65-1.66l-.05.02Z"/>
      <path class="cls-3" d="m142.93,14.52c.65-.15,1.39-.17,2.2-.05.81.12,2.18.42,4.11.91.39.12.9.47,1.54,1.09.63.61,1.1,1.18,1.36,1.72.15.34.44.81.87,1.38.5.65.84,1.15,1.01,1.49.17.34.32.88.43,1.6.39,1.87.43,4.39.12,7.56-.15,1.99-.9,3.92-2.23,5.82-1.33,1.89-2.89,3.27-4.67,4.15-.7.3-1.06.57-1.1.81-.08.15-.27.25-.58.29s-1.19.04-2.67,0c-1.74-.08-2.98-.2-3.74-.38-.76-.18-1.49-.5-2.23-1-.46-.38-.72-.57-.75-.57s-.04.75,0,2.26c.04,1.51.11,3.04.2,4.61.1,1.57.16,2.41.2,2.52.12.38.12.78,0,1.2-.08.27-.1.46-.06.57.04.12.17.29.41.52.24.27.43.42.58.46.15.04.52.04,1.1,0,.7-.08,1.14-.04,1.33.09.19.13.27.43.24.89l-.06.57-4.69-.05c-3.17,0-5.18-.04-6.03-.12-.62-.04-1-.09-1.13-.14-.14-.05-.18-.18-.15-.38,0-.15.07-.26.24-.31.15-.05.53-.09,1.1-.09.85-.04,1.3-.12,1.33-.23,0-.08-.05-.17-.17-.29-.15-.12.02-.47.52-1.09.43-.49.64-.86.67-1.09.03-.23-.04-.89-.2-2-.34-2.25-.37-4.18-.05-5.78.12-.69.1-1.13-.06-1.32-.15-.15-.25-1.58-.29-4.29-.08-2.9-.12-4.5-.12-4.81-.08-.96-.12-2.32-.12-4.1s.02-2.76.05-2.95c.12-.38.1-1.33-.05-2.86-.15-1.53-.31-2.42-.46-2.69-.15-.27-.3-.42-.43-.46-.14-.04-.49-.04-1.07,0-.54.04-1.07,0-1.59-.14-.53-.13-.78-.28-.78-.43,0-.23.21-.47.63-.72.43-.25.92-.41,1.5-.48.34-.07.57-.1.67-.05.1.04.16.13.2.29l.12.34.99-.4c.7-.23,1.1-.41,1.21-.55.12-.13.58-.33,1.4-.6.81-.27,1.47-.44,1.97-.52l.87-.12.12,1.32c.07.81.11,1.73.09,2.77-.02,1.05-.06,1.63-.15,1.74l.41-.17.12-.05c.43-.3.63-.64.63-1.03s.44-.99,1.33-1.83c.89-.84,1.5-1.35,1.86-1.55.34-.19.52-.37.52-.52,0-.34.46-.59,1.4-.74l-.04.02Zm2.55,4.18c-.85-.61-2.01-.63-3.48-.05-1.28.54-2.67,1.51-4.18,2.92l-1.4,1.38v1.6c-.04.72-.03,1.85.03,3.38.05,1.53.12,2.92.17,4.18.06,1.26.13,1.89.2,1.89s.24.21.46.63c.82,1.57,1.39,2.5,1.74,2.81.19.19.29.4.29.63s.31.49.93.81c.46.23.83.38,1.1.43.26.05.82.06,1.62.03,1.24-.04,1.89-.13,1.97-.26.07-.13.24-.24.46-.31.43-.15.99-.5,1.68-1.06.7-.55,1.16-.98,1.39-1.29.46-.76.76-1.57.9-2.41s.2-2.19.2-4.06c0-1.6-.03-2.61-.09-3.03-.06-.42-.18-.86-.38-1.32-.31-.65-.5-1.26-.58-1.83-.08-.46-.25-1.11-.52-1.95-.15-.61-.41-1.12-.75-1.52s-.95-.92-1.79-1.57h0Zm-4.69,7.96c.31-.12.93-.14,1.88-.09.94.05,1.58.16,1.88.31.34.19.64.29.87.29.12,0,.19.05.24.17.04.12.05.38.05.81l-.05,1.03-.82-.05c-.5-.07-.75-.06-.75.03s-.25.14-.75.14c-.39,0-.75-.09-1.1-.26-.34-.17-.52-.35-.52-.55s-.12-.25-.34-.17c-.24.08-.5-.02-.82-.29-.31-.27-.44-.53-.41-.77.04-.25.25-.45.64-.6h0Z"/>
      <path class="cls-3" d="m171.21,14.46c3.98-.46,7.23.88,9.74,4.01.62.81,1.17,1.82,1.65,3.03.48,1.23.61,1.91.38,2.06-.19.08-.31.27-.35.57,0,.19-.04.3-.15.34-.1.04-.34.05-.72.05-.54-.04-1.78-.04-3.71,0h-7.65l-4.76.05v.4c-.04.46,0,1.36.12,2.69.08,1.18.25,2.08.53,2.69.31.65.46,1.03.46,1.15,0,.3,1.14,1.35,3.42,3.15.96.72,1.92,1.35,2.87,1.89.94.54,1.59.81,1.94.81.65,0,1.72-.98,3.19-2.92.81-1.06,1.37-1.66,1.68-1.77.19-.07.39-.05.58.05.19.12.29.29.29.52,0,.08.05,0,.17-.23.15-.15.31-.4.46-.74.39-.72.72-1.15.99-1.29.27-.13.54,0,.82.38.24.34.27.75.12,1.23-.15.47-.54,1.19-1.16,2.15-.58.84-1.33,1.74-2.26,2.72-.92.98-1.7,1.67-2.32,2.09-.5.34-.8.55-.87.63-.43.38-1,.64-1.71.77-.71.13-1.9.22-3.57.26-1.24,0-2.2-.18-2.9-.55-.7-.37-1.77-1.31-3.24-2.84-1.39-1.45-2.32-2.54-2.78-3.27-.46-.72-.7-1.55-.7-2.46-.04-.81-.12-1.87-.24-3.2-.15-1.33-.17-2.41-.05-3.2.27-1.53.86-3.28,1.77-5.27.91-1.99,1.58-2.94,2-2.86.19.04.56-.21,1.11-.74.58-.57,1.33-1.08,2.26-1.52.92-.44,1.79-.72,2.61-.83h0Zm2.55,2.34c-.58-.3-1.01-.47-1.28-.52-.27-.04-.73.02-1.39.17-.85.15-1.85.75-2.99,1.81-1.14,1.05-1.96,2.13-2.46,3.24-.54,1.18-.6,1.72-.17,1.6.04,0,.1-.02.17-.05.19-.07,2.01-.07,5.45,0h.34c2.55.08,4.04.09,4.47.03.43-.05.63-.3.63-.72v-.05c0-.42-.16-1.19-.49-2.32-.33-1.13-.59-1.84-.78-2.15-.31-.34-.82-.69-1.5-1.03h0Z"/>
      <path class="cls-3" d="m199.85,14.46c3.98-.46,7.23.88,9.74,4.01.62.81,1.17,1.82,1.65,3.03.48,1.23.61,1.91.38,2.06-.19.08-.31.27-.35.57,0,.19-.04.3-.14.34-.1.04-.34.05-.72.05-.54-.04-1.78-.04-3.71,0h-7.65l-4.75.05v.4c-.04.46,0,1.36.12,2.69.08,1.18.25,2.08.53,2.69.31.65.46,1.03.46,1.15,0,.3,1.14,1.35,3.42,3.15.96.72,1.92,1.35,2.87,1.89.94.54,1.59.81,1.94.81.65,0,1.72-.98,3.19-2.92.81-1.06,1.37-1.66,1.68-1.77.19-.07.39-.05.58.05.19.12.29.29.29.52,0,.08.05,0,.17-.23.15-.15.31-.4.46-.74.39-.72.72-1.15.99-1.29.27-.13.54,0,.82.38.24.34.27.75.12,1.23-.15.47-.54,1.19-1.16,2.15-.58.84-1.33,1.74-2.26,2.72-.92.98-1.7,1.67-2.32,2.09-.5.34-.8.55-.87.63-.43.38-1,.64-1.71.77-.71.13-1.9.22-3.57.26-1.24,0-2.2-.18-2.9-.55-.7-.37-1.77-1.31-3.24-2.84-1.4-1.45-2.32-2.54-2.78-3.27-.46-.72-.7-1.55-.7-2.46-.04-.81-.12-1.87-.24-3.2-.15-1.33-.17-2.41-.05-3.2.27-1.53.86-3.28,1.77-5.27.91-1.99,1.58-2.94,2-2.86.19.04.56-.21,1.1-.74.58-.57,1.33-1.08,2.26-1.52.92-.44,1.79-.72,2.61-.83h0Zm2.56,2.34c-.58-.3-1.01-.47-1.28-.52-.27-.04-.73.02-1.39.17-.85.15-1.85.75-2.99,1.81-1.14,1.05-1.96,2.13-2.46,3.24-.54,1.18-.6,1.72-.17,1.6.04,0,.1-.02.17-.05.19-.07,2.01-.07,5.45,0h.34c2.55.08,4.04.09,4.46.03.43-.05.63-.3.63-.72v-.05c0-.42-.16-1.19-.49-2.32s-.59-1.84-.78-2.15c-.31-.34-.82-.69-1.5-1.03h0Z"/>
    </g>
  </g>
</svg>